<?xml version="1.0" encoding="UTF-8"?>
<svg id="Layer_2" data-name="Layer 2" xmlns="http://www.w3.org/2000/svg" viewBox="0 0 185.68 159.7">
  <defs>
    <style>
      .cls-1 {
        fill: #003f5e;
      }
    </style>
  </defs>
  <g id="Capa_1" data-name="Capa 1">
    <g>
      <path class="cls-1" d="M100.95,158.55c-4.99-10.64-10.22-23.47-14.74-38.23-5.3-17.29-10.03-38.72-11.82-63.26-.76-10.4-.97-21.36-.48-32.8,0-.11,0-.22,0-.33.14-19.12-22.53-20.96-30.55-21.02l-2.78.06h0S0,3.78,0,3.78l100.9,155.92.35-.66-.3-.5Z"/>
      <path class="cls-1" d="M102,157.64L185.68,0l-41.52.85h0s0,0,0,0l-6.68.14c-22.19,1.37-29.55,11.84-31.89,17.3-1.41,4.43-2.76,9.02-4.02,13.83-2.03,7.78-3.88,16.37-5.32,25.6-4.43,28.46-4.88,63.13,5.75,99.93Z"/>
    </g>
  </g>
</svg>