<?xml version="1.0" encoding="UTF-8"?>
<svg id="Layer_2" data-name="Layer 2" xmlns="http://www.w3.org/2000/svg" viewBox="0 0 781.82 159.7">
  <defs>
    <style>
      .cls-1 {
        fill: #003f5e;
      }
    </style>
  </defs>
  <g id="Capa_1" data-name="Capa 1">
    <g>
      <path class="cls-1" d="M100.95,158.55c-4.99-10.64-10.22-23.47-14.74-38.23-5.3-17.29-10.03-38.72-11.82-63.26-.76-10.4-.97-21.36-.48-32.8,0-.11,0-.22,0-.33.14-19.12-22.53-20.96-30.55-21.02l-2.78.06h0S0,3.78,0,3.78l100.9,155.92.35-.66-.3-.5Z"/>
      <path class="cls-1" d="M102,157.64L185.68,0l-41.52.85h0s0,0,0,0l-6.68.14c-22.19,1.37-29.55,11.84-31.89,17.3-1.41,4.43-2.76,9.02-4.02,13.83-2.03,7.78-3.88,16.37-5.32,25.6-4.43,28.46-4.88,63.13,5.75,99.93Z"/>
    </g>
    <g>
      <path class="cls-1" d="M299.25,47.52l-35.42,105.35h-42.71l-35.42-105.35h35.12l21.73,72.47,21.58-72.47h35.12Z"/>
      <path class="cls-1" d="M339.73,47.52v105.35h-33.03V47.52h33.03Z"/>
      <path class="cls-1" d="M460.7,47.52l-35.42,105.35h-42.71l-35.42-105.35h35.12l21.73,72.47,21.58-72.47h35.12Z"/>
      <path class="cls-1" d="M535.7,136.95h-35.12l-5.21,15.92h-34.67l38.54-105.35h38.09l38.39,105.35h-34.82l-5.21-15.92ZM527.66,112.1l-9.52-29.31-9.52,29.31h19.05Z"/>
      <path class="cls-1" d="M684.2,152.87h-33.03l-34.97-52.97v52.97h-33.03V47.52h33.03l34.97,53.87v-53.87h33.03v105.35Z"/>
      <path class="cls-1" d="M781.82,47.52v26.19h-27.98v79.16h-33.03v-79.16h-27.68v-26.19h88.69Z"/>
    </g>
  </g>
</svg>