<?xml version="1.0" encoding="UTF-8"?>
<svg id="Layer_2" data-name="Layer 2" xmlns="http://www.w3.org/2000/svg" viewBox="0 0 203.76 41.21">
  <defs>
    <style>
      .cls-1 {
        fill: #fff;
      }
    </style>
  </defs>
  <g id="Capa_1" data-name="Capa 1">
    <g>
      <path class="cls-1" d="M0,0h9.2l8.95,31.29L27.18,0h8.95l-14.06,41.21h-8.14L0,0Z"/>
      <path class="cls-1" d="M40.57,0h8.56v41.21h-8.56V0Z"/>
      <path class="cls-1" d="M54.1,0h9.2l8.95,31.29L81.27,0h8.95l-14.06,41.21h-8.14L54.1,0Z"/>
      <path class="cls-1" d="M115.24,32.74h-15.18l-2.85,8.47h-9L102.91,0h9.73l14.59,41.21h-9.34l-2.66-8.47ZM112.84,25.64l-5.14-16.22-5.31,16.22h10.46Z"/>
      <path class="cls-1" d="M165.79,41.21h-8.61l-16.83-29.27v29.27h-8.02V0h9.03l16.41,28.77V0h8.02v41.21Z"/>
      <path class="cls-1" d="M203.76,0v7.3h-12.33v33.91h-8.67V7.3h-12.39V0h33.38Z"/>
    </g>
  </g>
</svg>